<svg width="28" height="24" viewBox="0 0 28 24" fill="none" xmlns="http://www.w3.org/2000/svg">
<ellipse cx="6.24812" cy="21.2039" rx="2.40388" ry="2.79612" fill="#DF4650"/>
<ellipse cx="22.0738" cy="21.2039" rx="2.40388" ry="2.79612" fill="#DF4650"/>
<path d="M15.1177 1.93568C15.8042 1.9357 16.3031 2.28061 16.6284 2.67006C16.9457 3.05001 17.1219 3.49694 17.1919 3.8058L17.2046 3.85951V4.70326C20.1623 4.69552 25.4297 4.687 26.2144 4.70522C26.7976 4.71891 27.2239 5.00385 27.5034 5.32631C27.7744 5.63902 27.9247 6.00386 27.9849 6.26088L27.9985 6.31752V19.6486C27.9983 20.1706 27.6573 20.5595 27.3745 20.7951C27.0766 21.0431 26.729 21.2192 26.4927 21.3097L26.4067 21.3429H24.6294V20.7951C24.6294 20.6423 24.54 19.8934 24.144 19.1906C23.7629 18.5144 23.1212 17.9111 21.9878 17.881C21.1209 17.8581 20.5213 18.2962 20.0991 18.9132C19.6671 19.5451 19.4514 20.3295 19.3911 20.8517L19.3403 21.2951H8.91553L8.87646 20.8371C8.83368 20.3385 8.63675 19.5809 8.20264 18.963C7.78164 18.364 7.14797 17.9044 6.17822 17.9044C5.21065 17.9045 4.59928 18.362 4.20264 18.9542C3.79159 19.5682 3.61955 20.323 3.59326 20.8214L3.56885 21.2951H1.56885L1.54053 21.2912C0.954511 21.2245 0.560746 20.912 0.32373 20.5548C0.0981056 20.2145 0.0129889 19.8354 0.00244141 19.5734V16.7121C0.00243772 16.1294 -0.0097575 15.8032 0.0200195 15.5548C0.0542351 15.2705 0.145293 15.0526 0.280762 14.6964C0.34271 14.5335 0.48345 14.3176 0.630371 14.1076C0.789851 13.8796 0.997988 13.6009 1.23682 13.2931C1.71551 12.6762 2.32975 11.9227 2.94678 11.1798C4.17983 9.69531 5.44112 8.23362 5.69385 7.95131C6.19591 7.39059 6.90485 7.19818 7.22314 7.16615L7.24463 7.1642H7.26611L10.2563 7.12221C10.2632 6.95169 10.2702 6.73022 10.2827 6.44838C10.308 5.88145 10.587 5.46692 10.8999 5.1935C11.2037 4.92812 11.5555 4.77882 11.8052 4.71889L11.8628 4.70522H12.9858V3.72768L13.0044 3.66225C13.0862 3.36937 13.2801 2.95419 13.6099 2.60365C13.9483 2.2441 14.4491 1.93572 15.1177 1.93568ZM18.8921 10.2667H16.188V13.2267H18.8921V15.9962H21.7075V13.2267H24.3218L24.3228 10.2667H21.7075V7.35365H18.8921V10.2667ZM7.01221 8.71498C6.53949 8.71515 6.24419 8.98196 6.11572 9.23256L3.47607 12.4298L3.44385 12.4689L3.42041 12.5128C3.28826 12.7601 3.26027 13.0423 3.39697 13.2921C3.51491 13.5073 3.71077 13.614 3.84912 13.6564L3.91943 13.6779H3.9917L10.4058 13.7257L10.9097 13.7296V8.71498H7.01221Z" fill="#DF4650"/>
<rect x="14.8027" width="0.80453" height="2.14866" rx="0.402265" fill="#DF4650"/>
<rect width="0.83245" height="2.08112" rx="0.416225" transform="matrix(0.683391 -0.730052 0.683391 0.730052 11.4946 1.7059)" fill="#DF4650"/>
<rect width="0.83245" height="2.08112" rx="0.416225" transform="matrix(-0.683391 -0.730052 -0.683391 0.730052 18.6709 1.7059)" fill="#DF4650"/>
</svg>
